<?xml version="1.0"?>
<svg xmlns="http://www.w3.org/2000/svg" viewBox="0 0 50 50">
    <path d="M39.8,24.1c-2.6-1.7-4.6-2.8-6.8-5.1c-0.4-0.4-0.9-0.9-1.1-0.9c-0.2-0.2-0.6,0-0.9,0c-1.1,0-1.9-0.5-2.8-0.9 c1-0.1,2.1-0.2,2.9-0.2c3.6,0,6.2,0.9,8,2c0.6-0.6,1.5-1.1,2-1.9c-0.6-0.7-0.9-2.4-1.1-3.3c-0.2-0.7-0.2-1.3-0.4-1.7 C38.5,8.1,37.2,5,35,2c2.2,4.3,4.2,8.7,4,15c-1.8-0.6-7.4-1-8-1c-0.9,0-2.1,0.3-3,0.3c0.4-0.6,0.6-1.5,1.3-1.7c0.4-0.2,0.9,0,1.5,0 c1.8,0,3.8-0.2,4.3,0.4c0.4-0.6,1.3-0.8,1.5-1.3c0-0.2-0.2-1.1-0.4-1.7s-0.4-1.3-0.6-1.7c-0.7-3-2.1-6.3-3.2-8.7L32,1 c1.1,3.7,2,7.3,2,12c-2,0-2.8,0-5,0c-0.7,0.6-1.4,1.6-2,2c0.2-0.9-0.5-1.5-1-1.9c0.2,0.4,0.7,1.5,0.3,2.1c-0.4,0-0.2-0.6-0.6-0.6 c-0.2,0.2-0.5,0.3-0.7,0.3l0,0l0,0c-0.3,0-0.5,0-0.7-0.3c-0.4,0-0.2,0.6-0.6,0.6c-0.4-0.6,0.1-1.7,0.3-2.1c-0.6,0.4-1.2,1-1,1.9 c-0.6-0.4-1.2-1.4-2-2c-2.2,0-3,0-5,0c0-4.7,0.9-8.3,2-12l-0.4,0.6c-1.1,2.4-2.4,5.8-3.2,8.7c-0.2,0.4-0.4,1.1-0.6,1.7 s-0.4,1.5-0.4,1.7c0.2,0.6,1.1,0.8,1.5,1.3c0.4-0.6,2.4-0.4,4.3-0.4c0.6,0,1.1-0.2,1.5,0c0.7,0.2,0.9,1.1,1.3,1.7 c-0.9,0-2.1-0.3-3-0.3c-0.6,0-6.2,0.4-8,1c-0.2-6.3,1.8-10.7,4-15c-2.2,3-3.5,6.1-4.6,10.2c-0.2,0.4-0.2,0.9-0.4,1.7 c-0.2,0.9-0.5,2.6-1.1,3.3c0.6,0.7,1.5,1.3,2,1.9c1.8-1.1,4.4-2,8-2c0.7,0,1.8,0,2.9,0.2c-0.9,0.4-1.7,0.9-2.8,0.9 c-0.4,0-0.7-0.2-0.9,0c-0.2,0-0.7,0.6-1.1,0.9c-2.2,2.2-4.2,3.4-6.8,5.1c-0.7,0.6-1.3,1.1-2.2,0.4c0,7.4,1.7,12.9,4.1,17.9 C12.4,42.9,13,44,13,44c-1.8-4.3-3-9.3-3-15.3c0-0.6-0.2-1.5,0-1.9c0.2-0.7,1.3-1.7,2-2.2c2-1.9,3.5-2.6,5.7-4.3 c0.4-0.4,0.7-0.7,1.1-0.9s2.2-0.5,3-0.9c-0.9,0.9-2,2.6-3.1,3.5c-0.2,0.2-0.4,0-0.7,0c0,9,0.4,16.6,2.8,22.9c0.6,1.5,1.3,3,2.2,4.1 c-3.3-6-3-15.7-3-25c-0.7-0.6-0.2-0.9,0.4-1.6c0.7-0.7,1.6-2.6,2.6-3c0,0.4-0.2,0.7-0.4,1s-0.6,0.8-0.6,1c-0.2,0.7,0.2,2.2,0.4,3 C23,27,23.7,30,24.6,32c0.4,0,0.2-0.8,0.4-1l0,0l0,0c0.2,0.2,0,1,0.4,1c0.9-2,1.7-5,2.2-7.6c0.2-0.7,0.6-2.2,0.4-3 c0-0.2-0.4-0.6-0.6-0.9s-0.4-0.7-0.4-1c0.9,0.4,1.8,2.2,2.6,3c0.6,0.7,1.1,1.1,0.4,1.6c0,9.3,0.3,19-3,25c0.9-1.1,1.7-2.6,2.2-4.1 c2.4-6.4,2.8-14,2.8-23c-0.4,0-0.6,0.2-0.7,0c-1.1-0.9-2.2-2.6-3.1-3.5c0.8,0.4,2.6,0.7,3,0.9s0.7,0.6,1.1,0.9 c2.2,1.7,3.6,2.5,5.7,4.3c0.7,0.6,1.8,1.5,2,2.2c0.2,0.4,0,1.3,0,1.9c0,6-1.1,11-3,15.3c0,0,0.6-1.1,0.9-1.7 c2.4-5,4.1-10.5,4.1-17.9C41.1,25.2,40.5,24.6,39.8,24.1z"/>
</svg>
